<?xml version="1.0" encoding="utf-8"?>
<!-- Generator: Adobe Illustrator 19.0.0, SVG Export Plug-In . SVG Version: 6.00 Build 0)  -->
<svg version="1.1" id="layer" xmlns="http://www.w3.org/2000/svg" xmlns:xlink="http://www.w3.org/1999/xlink" x="0px" y="0px"
	 viewBox="150 226 50 100" style="enable-background:new -153 -46 652 652;" xml:space="preserve">
<style type="text/css">
	.st1{fill:#FC0000;}
	.st0{fill:#FF5C5C;}
</style>
<g id="Homepage" >
	<g id="Home" transform="translate(-72.000000, -7240.000000)">
		<g id="Group-24" transform="translate(72.000000, 7240.000000)">
			<g id="Group-7" transform="translate(13.000000, 3.526700)">
				<path id="Fill-1" class="st0" d="M-44,275V274l-9.1-7.8h-1.1c-2.5,2.8-6.3,4.8-10.6,4.8c-6.7,0-12-5.1-12-12.2
					c0-7,5.3-12.2,12-12.2c4.3,0,8.2,2.1,10.6,4.8h1.1l9.1-7.8v-1.1c-4.8-5.8-12.2-9.6-20.7-9.6c-15.5,0-27.3,11-27.3,25.8
					c0,0.6,0.1,1.1,0.2,1.7c6.4,4.3,12,7.8,16.8,11c7,4.4,12.6,8.5,17.2,12.2C-52,282.2-47.4,279.1-44,275 M-86.4,274.7
					c3.6,4.5,8.8,7.7,14.8,9c-4.1-2.3-8-4.6-11.7-7C-84.4,276.1-85.3,275.4-86.4,274.7"/>
				<path id="Fill-3" class="st0" d="M8.4,281.3l-2.3-9.8L5.3,271c-0.5,0.2-0.8,0.5-2,0.5c-1.7,0-2.8-1.8-3.7-3.3
					c-1.5-2.3-2.7-3.5-3.8-4.1c5.5-2.4,9.2-7,9.2-13.6c0-10.2-6.9-16.6-19.9-16.6h-22.5v49.7h14.9v-17.4h1.4c3.3,0,7.6,7.2,9.5,10.4
					c4.1,6.5,7.3,7.9,13.1,7.9c2.7,0,5-1,6.3-2.2L8.4,281.3z M-10.1,251.4c0,3.3-2.4,4.9-5.2,4.9h-6.9v-10.1h6.9
					C-12.5,246.2-10.1,248-10.1,251.4L-10.1,251.4z"/>
				<path id="Fill-5" class="st0" d="M66.2,258.8c0-14.8-11.8-25.8-27.4-25.8c-15.6,0-27.4,11-27.4,25.8s11.8,25.8,27.4,25.8
					C54.4,284.6,66.2,273.5,66.2,258.8 M50.9,258.8c0,7.1-5.4,12.2-12.2,12.2c-6.7,0-12.2-5-12.2-12.2c0-7.1,5.4-12.2,12.2-12.2
					C45.5,246.7,50.9,251.7,50.9,258.8"/>
			</g>
			<polygon id="Fill-8" class="st0" points="154,237.5 139.7,237.5 130.9,265 121.5,237.5 112.5,237.5 103.2,264.9 94.4,237.5
				80.1,237.5 79.4,238.6 97.7,287.2 106.7,287.2 117,260.1 127.4,287.2 136.4,287.2 154.7,238.6 			"/>
			<path id="Fill-9" class="st0" d="M209.4,262.3c0-14.8-9.9-24.8-26-24.8h-22.9v49.7h22.9C199.5,287.2,209.4,277.3,209.4,262.3
				 M194.2,262.3c0,8.1-4.8,12.6-11.3,12.6h-7.3v-25.2h7.3C189.4,249.7,194.2,254.2,194.2,262.3"/>
			<polygon id="Fill-11" class="st0" points="288.6,249.7 303.5,249.7 303.5,237.5 258.7,237.5 258.7,249.7 273.6,249.7
				273.6,287.2 288.6,287.2 			"/>
			<path id="Fill-12" class="st0" d="M351.3,254.1c0-10.2-6.9-16.6-19.9-16.6H309v49.7h15v-17.4h3.5l9.3,17.4h14.9l0.7-1.1l-10-18.4
				C347.7,265.1,351.3,260.6,351.3,254.1 M336.1,254.9c0,3.3-2.4,4.9-5.2,4.9h-6.9v-10.1h6.9C333.7,249.7,336.1,251.6,336.1,254.9"
				/>
			<polygon id="Fill-14" class="st0" points="360.4,287.2 375.3,287.2 375.3,237.5 360.4,237.5 			"/>
			<polygon id="Fill-15" class="st0" points="413.2,259.7 430.1,238.6 429.5,237.5 413.5,237.5 399.7,255.2 399.7,237.5
				384.8,237.5 384.8,287.2 399.7,287.2 399.7,271.9 402.4,268.7 415.1,287.2 430.7,287.2 431.4,286 			"/>
			<polygon id="Fill-16" class="st0" points="435.5,237.5 435.5,287.2 473.1,287.2 473.1,275 450.4,275 450.4,268.1 467.5,268.1
				467.5,256.6 450.4,256.6 450.4,249.7 472.9,249.7 472.9,237.5 			"/>
			<g id="Group-23" transform="translate(0.000000, 0.526700)">
				<path id="Fill-17" class="st0" d="M234.7,287.3c10.9,0,20.5-5.3,20.5-15.7c0-11.2-9.6-14.1-18-16.6c-3.3-1-6.7-2.1-6.7-4.6
					c0-1.8,1.9-2.8,4.8-2.8c4.9,0,9.1,3.1,11.2,5h1.1l7-8.4v-1.1c-3.7-4.2-11.2-7.4-19.6-7.4c-11.6,0-19.7,6.3-19.7,15.4
					c0,9.8,8.9,14.1,16.4,16.2c4.9,1.4,8.2,1.6,8.2,4.3c0,1.9-2.3,3.1-6,3.1c-4.6,0-10.2-3-12.9-5.7h-1.1l-6.9,8.7v1.1
					C217.4,283.7,225.4,287.3,234.7,287.3"/>
				<path id="Fill-19" class="st1" d="M-23,332.9c-3.6-8.3-10.9-18.9-39.4-34.1c-13.1-7.3-35.6-18.5-55.8-39.9
					c1.8,7.7,11.2,24.7,51.5,45.8C-55.5,310.9-36.6,316.6-23,332.9"/>
				<path id="Fill-21" class="st1" d="M-24.8,318.7c-3.4-9.8-9.6-22.3-39.1-41c-14.3-9.4-35.4-21.2-63-51.2
					c2,8.1,10.7,29.2,54.8,56.5C-57.6,292.9-38.9,298.9-24.8,318.7"/>
			</g>
		</g>
	</g>
</g>
</svg>
