<?xml version="1.0" encoding="UTF-8" standalone="no"?>
<svg xmlns:dc="http://purl.org/dc/elements/1.1/" xmlns:cc="http://creativecommons.org/ns#" xmlns:rdf="http://www.w3.org/1999/02/22-rdf-syntax-ns#" xmlns:svg="http://www.w3.org/2000/svg" xmlns="http://www.w3.org/2000/svg" viewBox="245 0 195 150" height="100" width="135" xml:space="preserve" id="svg2" version="1.1">
  <metadata id="metadata8">
    <rdf:RDF>
      <cc:Work rdf:about="">
        <dc:format>image/svg+xml
        </dc:format>
        <dc:type rdf:resource="http://purl.org/dc/dcmitype/StillImage" />
      </cc:Work>
    </rdf:RDF>
  </metadata>
  <defs id="defs6" />
  <g transform="matrix(1.3333333,0,0,-1.3333333,0,413.52)"   id="g10">
    <g transform="scale(0.1)" style="" id="g12">
      <path id="path156" style="fill:#e845a6;fill-opacity:1;fill-rule:nonzero;stroke:none" d="m 2787.81,2610.7 h 547.672 v 140.188 H 2787.81 Z" />
      <path id="path158" style="fill:#efba13;fill-opacity:1;fill-rule:nonzero;stroke:none" d="m 3264.35,2610.7 h -476.54 v 350.6 h 476.54 v -350.6" />
      <path id="path160" style="fill:#ee9222;fill-opacity:1;fill-rule:nonzero;stroke:none" d="m 2787.81,2610.7 h 279.66 v 490.715 h -279.66 z" />
      <path id="path162" style="fill:#f2b474;fill-opacity:1;fill-rule:nonzero;stroke:none" d="m 2787.81,2610.7 h 334.68 v 435.957 h -334.68 z" />
      <path id="path164" style="fill:#e3621b;fill-opacity:1;fill-rule:nonzero;stroke:none" d="m 2787.74,2610.75 h 279.703 v 435.82 H 2787.74 Z" />
      <path id="path166" style="fill:#ab1e22;fill-opacity:1;fill-rule:nonzero;stroke:none" d="m 2507.38,2610.7 h 280.43 v -70.1 h -280.43 v 70.1" />
      <path id="path168" style="fill:#e68116;fill-opacity:1;fill-rule:nonzero;stroke:none" d="m 2787.74,2610.75 h 334.91 v 350.637 h -334.91 z" />
      <path id="path170" style="fill:#d8471f;fill-opacity:1;fill-rule:nonzero;stroke:none" d="m 2787.74,2610.75 h 279.703 v 350.637 H 2787.74 Z" />
      <path id="path172" style="fill:#c03821;fill-opacity:1;fill-rule:nonzero;stroke:none" d="m 2962.7,2610.7 h -174.89 v 210.44 H 2962.7 V 2610.7" />
      <path id="path174" style="fill:#db4020;fill-opacity:1;fill-rule:nonzero;stroke:none" d="m 2787.74,2610.75 h 476.773 v 140.027 H 2787.74 Z" />
      <path id="path176" style="fill:#d23023;fill-opacity:1;fill-rule:nonzero;stroke:none" d="m 2787.74,2610.75 h 334.91 v 140.027 h -334.91 z" />
      <path id="path178" style="fill:#c12324;fill-opacity:1;fill-rule:nonzero;stroke:none" d="m 2787.74,2610.75 h 279.703 v 140.027 H 2787.74 Z" />
      <path id="path180" style="fill:#ab1e22;fill-opacity:1;fill-rule:nonzero;stroke:none" d="m 2787.74,2610.75 h 175.133 v 140.027 H 2787.74 Z" />
      <path id="path182" style="fill:#D6D4D4;fill-opacity:1;fill-rule:nonzero;stroke:none" d="m 2848.78,2346.68 c -47.71,-8.47 -73.16,-44.53 -73.16,-107.09 0,-63.62 33.94,-106.03 83.77,-106.03 24.38,0 45.6,8.48 90.13,30.75 0,-51.95 0,-51.95 0,-51.95 -54.08,-25.45 -85.89,-31.82 -128.3,-31.82 -47.72,0 -81.65,11.66 -108.16,40.3 -27.57,27.56 -42.41,63.62 -42.41,104.96 0,90.13 67.86,152.7 166.47,152.7 64.68,0 110.28,-30.75 110.28,-74.23 0,-28.62 -21.2,-48.77 -51.96,-48.77 -15.9,0 -28.63,5.3 -46.66,14.85" />
      <path id="path184" style="fill:#D6D4D4;fill-opacity:1;fill-rule:nonzero;stroke:none" d="m 2610.21,2225.8 c 43.48,54.09 59.37,76.35 59.37,102.87 0,26.5 -21.2,49.83 -50.89,49.83 -16.97,0 -32.87,-9.55 -40.29,-18.03 0,-111.33 0,-111.33 0,-111.33 -71.04,-95.44 -71.04,-95.44 -71.04,-95.44 0,216.32 0,216.32 0,216.32 -67.86,0 -67.86,0 -67.86,0 -112.41,-185.56 -112.41,-185.56 -112.41,-185.56 0,185.56 0,185.56 0,185.56 -38.16,0 -38.16,0 -38.16,0 -102.86,-23.34 -102.86,-23.34 -102.86,-23.34 0,-26.5 0,-26.5 0,-26.5 56.2,-5.3 56.2,-5.3 56.2,-5.3 0,-230.1 0,-230.1 0,-230.1 71.05,0 71.05,0 71.05,0 108.15,178.13 108.15,178.13 108.15,178.13 0,-178.13 0,-178.13 0,-178.13 79.52,0 79.52,0 79.52,0" />
      <path id="path186" style="fill:#D6D4D4;fill-opacity:1;fill-rule:nonzero;stroke:none" d="m 1970.83,1995.72 c 46.65,-10.61 46.65,-10.61 46.65,-10.61 0,-26.51 0,-26.51 0,-26.51 -183.44,0 -183.44,0 -183.44,0 0,26.51 0,26.51 0,26.51 42.41,10.61 42.41,10.61 42.41,10.61 0,320.21 0,320.21 0,320.21 -46.65,0 -46.65,0 -46.65,0 0,26.52 0,26.52 0,26.52 111.34,33.93 111.34,33.93 111.34,33.93 29.69,0 29.69,0 29.69,0 0,-38.17 0,-38.17 0,-38.17 51.95,31.81 69.98,37.11 97.54,37.11 61.51,0 108.16,-57.26 108.16,-136.79 0,-91.19 -62.56,-153.75 -157.99,-153.75 -10.61,0 -28.63,1.06 -47.71,2.13 m 0,33.93 c 8.47,0 10.59,0 15.89,0 57.27,0 89.08,34.98 89.08,104.96 0,58.32 -25.45,90.13 -73.17,90.13 -6.36,0 -15.91,-1.05 -31.8,-4.24 v -190.85" />
    </g>
  </g>
</svg>
